<svg id="Icons" fill="#edc988" height="50" viewBox="0 0 74 74" width="50" xmlns="http://www.w3.org/2000/svg"><path d="m37.01 72c-.287 0-.576-.007-.865-.021a16.958 16.958 0 0 1 -6.859-32.042v-30.224a7.714 7.714 0 0 1 15.428 0v30.224a17.033 17.033 0 0 1 9.25 15.1 16.961 16.961 0 0 1 -16.954 16.963zm-5.724-31.6a.99.99 0 0 1 -.557 1.054 14.991 14.991 0 0 0 -8.69 13.852 15.173 15.173 0 0 0 14.2 14.671 14.963 14.963 0 0 0 15.725-14.941 15.024 15.024 0 0 0 -8.693-13.578 1 1 0 0 1 -.557-1.113v-30.632a5.714 5.714 0 0 0 -11.428 0z"/><path d="m37 65.708a10.208 10.208 0 1 1 10.208-10.208 10.22 10.22 0 0 1 -10.208 10.208zm0-18.416a8.208 8.208 0 1 0 8.208 8.208 8.218 8.218 0 0 0 -8.208-8.208z"/><path d="m37 47.292a1 1 0 0 1 -1-1v-31.292a1 1 0 0 1 2 0v31.292a1 1 0 0 1 -1 1z"/><path d="m25.688 10.25h-4a1 1 0 0 1 0-2h4a1 1 0 1 1 0 2z"/><path d="m25.688 16.516h-2a1 1 0 0 1 0-2h2a1 1 0 1 1 0 2z"/><path d="m25.688 22.781h-4a1 1 0 1 1 0-2h4a1 1 0 0 1 0 2z"/><path d="m25.688 29.047h-2a1 1 0 0 1 0-2h2a1 1 0 0 1 0 2z"/><path d="m25.688 35.313h-4a1 1 0 0 1 0-2h4a1 1 0 1 1 0 2z"/></svg>