<svg id="Capa_1" fill="#edc988" enable-background="new 0 0 512 512" height="50" viewBox="0 0 512 512" width="50" xmlns="http://www.w3.org/2000/svg"><g><g><path d="m494.629 50.088h-33.743v-19.996c0-16.592-13.499-30.092-30.092-30.092-16.592 0-30.091 13.5-30.091 30.092v19.996h-56.347v-19.996c0-16.592-13.499-30.092-30.091-30.092s-30.092 13.5-30.092 30.092v19.996h-56.346v-19.996c0-16.592-13.499-30.092-30.092-30.092s-30.092 13.5-30.092 30.092v19.996h-56.347v-19.996c.001-16.592-13.498-30.092-30.09-30.092-16.608 0-30.12 13.5-30.12 30.092v19.996h-33.743c-9.56 0-17.336 7.777-17.336 17.336v94.309c0 6.871 4.027 12.803 9.836 15.606v299.324c0 19.485 15.851 35.337 35.336 35.337h421.614c19.484 0 35.336-15.852 35.336-35.336v-299.319c5.825-2.801 9.864-8.736 9.864-15.612v-94.308c0-9.56-7.79-17.337-17.364-17.337zm-78.926-19.996c0-8.322 6.77-15.092 15.091-15.092s15.092 6.771 15.092 15.092v48.189c0 8.322-6.771 15.092-15.092 15.092s-15.091-6.771-15.091-15.092zm-116.53 0c0-8.322 6.771-15.092 15.092-15.092s15.092 6.771 15.092 15.092v48.189c0 8.322-6.771 15.092-15.092 15.092s-15.092-6.771-15.092-15.092zm-116.529 0c0-8.322 6.771-15.092 15.092-15.092s15.092 6.771 15.092 15.092v48.189c0 8.322-6.771 15.092-15.092 15.092s-15.092-6.771-15.092-15.092zm-116.558 0c0-8.322 6.783-15.092 15.12-15.092 8.321 0 15.091 6.771 15.091 15.092v48.189c0 8.322-6.77 15.092-15.091 15.092-8.337 0-15.12-6.771-15.12-15.092zm-48.743 34.996h33.743v13.193c0 16.593 13.512 30.092 30.12 30.092 16.592 0 30.091-13.5 30.091-30.092v-13.193h56.347v13.193c0 16.593 13.499 30.092 30.092 30.092s30.092-13.5 30.092-30.092v-13.193h56.346v13.193c0 16.593 13.499 30.092 30.092 30.092s30.092-13.5 30.092-30.092v-13.193h56.347v13.193c0 16.593 13.499 30.092 30.091 30.092 16.593 0 30.092-13.5 30.092-30.092v-13.193h33.743c1.281 0 2.364 1.07 2.364 2.336v60.248h-481.988v-60.247c0-1.267 1.069-2.337 2.336-2.337zm449.45 431.912h-421.614c-11.213 0-20.336-9.123-20.336-20.336v-297.594h212.604c4.143 0 7.5-3.358 7.5-7.5s-3.357-7.5-7.5-7.5h-220.104c-1.267 0-2.336-1.07-2.336-2.336v-19.061h481.986v19.061c0 1.267-1.083 2.336-2.364 2.336h-219.623c-4.143 0-7.5 3.358-7.5 7.5s3.357 7.5 7.5 7.5h212.123v297.594c0 11.213-9.123 20.336-20.336 20.336z"/><path d="m263.39 232.243c-3.175-2.66-7.904-2.243-10.565.931l-.798.952c-3.9-4.391-9.57-7.177-15.891-7.177h-40.317c-11.731 0-21.276 9.545-21.276 21.277v47.376c0 11.732 9.545 21.277 21.276 21.277h40.317c11.732 0 21.277-9.545 21.277-21.277v-44.551l6.907-8.242c2.661-3.175 2.244-7.906-.93-10.566zm-20.977 63.359c0 3.461-2.816 6.277-6.277 6.277h-40.317c-3.461 0-6.276-2.816-6.276-6.277v-47.376c0-3.461 2.815-6.277 6.276-6.277h40.317c2.701 0 5.002 1.718 5.886 4.116l-21.749 25.952-6.73-5.7c-3.16-2.676-7.894-2.284-10.57.876-2.677 3.161-2.284 7.894.877 10.57l12.483 10.572c1.359 1.152 3.078 1.777 4.847 1.777.212 0 .426-.009.639-.027 1.989-.17 3.828-1.125 5.109-2.655l15.486-18.48v26.652z"/><path d="m453.861 311.346-47.543-27.281v-24.646c0-15.859-12.523-39.384-29.824-39.384-17.3 0-29.823 23.525-29.823 39.384v24.646l-47.569 27.295c-4.26 2.413-9.562 5.417-9.562 14.931l-.056 24.602c-.005 2.29 1.036 4.456 2.826 5.883s4.134 1.958 6.366 1.441l47.995-11.115v20.348l-21.469 11.196c-2.479 1.292-4.032 3.855-4.032 6.65v33.234c0 2.447 1.194 4.741 3.199 6.144 2.003 1.403 4.566 1.741 6.868.903 15.133-5.513 30.363-8.321 45.244-8.347 14.906.026 30.138 2.834 45.271 8.347.834.304 1.702.453 2.566.453 1.519 0 3.024-.461 4.302-1.356 2.005-1.403 3.199-3.697 3.199-6.144v-33.234c0-2.795-1.554-5.358-4.032-6.65l-21.469-11.196v-20.348l47.995 11.115c2.231.518 4.575-.014 6.366-1.441s2.831-3.593 2.826-5.883l-.057-24.623c-.048-9.515-5.337-12.514-9.587-14.924zm-53.35 19.015c-2.227-.516-4.568.012-6.359 1.436-1.79 1.423-2.833 3.584-2.833 5.871v34.331c0 2.795 1.554 5.358 4.032 6.65l21.469 11.196v18.338c-13.467-3.93-26.989-5.928-40.338-5.952-13.328.023-26.846 2.022-40.312 5.952v-18.338l21.469-11.196c2.479-1.292 4.032-3.855 4.032-6.65v-34.331c0-2.287-1.043-4.448-2.833-5.871s-4.131-1.952-6.359-1.436l-47.974 11.109s.046-15.741.061-15.925c.484-.315 53.34-30.633 53.34-30.633 2.329-1.337 3.766-3.818 3.766-6.504v-28.988c0-10.255 8.589-24.384 14.823-24.384s14.824 14.129 14.824 24.384v28.988c0 2.686 1.437 5.167 3.766 6.504 0 0 52.847 30.315 53.333 30.632.017.187-.01 15.908-.01 15.908z"/><path d="m126.851 226.949h-40.29c-11.731 0-21.276 9.545-21.276 21.277v47.376c0 11.732 9.545 21.277 21.276 21.277h40.29c11.731 0 21.276-9.545 21.276-21.277v-47.376c0-11.732-9.545-21.277-21.276-21.277zm6.276 68.653c0 3.461-2.815 6.277-6.276 6.277h-40.29c-3.461 0-6.276-2.816-6.276-6.277v-47.376c0-3.461 2.815-6.277 6.276-6.277h40.29c3.461 0 6.276 2.816 6.276 6.277z"/><path d="m126.851 343.126h-40.29c-11.731 0-21.276 9.545-21.276 21.277v47.376c0 11.732 9.545 21.277 21.276 21.277h40.29c11.731 0 21.276-9.545 21.276-21.277v-47.376c0-11.732-9.545-21.277-21.276-21.277zm6.276 68.653c0 3.461-2.815 6.277-6.276 6.277h-40.29c-3.461 0-6.276-2.816-6.276-6.277v-47.376c0-3.461 2.815-6.277 6.276-6.277h40.29c3.461 0 6.276 2.816 6.276 6.277z"/><path d="m236.136 343.126h-40.317c-11.731 0-21.276 9.545-21.276 21.277v47.376c0 11.732 9.545 21.277 21.276 21.277h40.317c11.732 0 21.277-9.545 21.277-21.277v-47.376c0-11.732-9.545-21.277-21.277-21.277zm6.277 68.653c0 3.461-2.816 6.277-6.277 6.277h-40.317c-3.461 0-6.276-2.816-6.276-6.277v-47.376c0-3.461 2.815-6.277 6.276-6.277h40.317c3.461 0 6.277 2.816 6.277 6.277z"/></g></g></svg>